# xmcd CD database file
#
# Track frame offsets:
#	182
#	12395
#	27035
#	38072
#	51185
#	64525
#	75515
#	88490
#	99732
#	110807
#	122990
#	135972
#	148912
#	161717
#	171535
#	181160
#	195632
#	208182
#	220897
#	233547
#	246275
#	258610
#	269730
#
# Disc length: 3737 seconds
#
# Revision: 0
# Processed by: cddbd v1.4PL0 Copyright (c) Steve Scherf et al.
# Submitted via: CDex 1.50beta10
#
DISCID=5b0e9717
DTITLE=Billie Holiday - The Voice Of Jazz - The Complete Recordings 1933-1940
DYEAR=1991
DGENRE=Jazz
TTITLE0=Back In Your Own Backyard
TTITLE1=Back In Your Own Backyard
TTITLE2=When A Woman Loves A Man
TTITLE3=You Go To My Head
TTITLE4=The Moon Looks Down And Laughs
TTITLE5=If I Were You
TTITLE6=Forget If You Can
TTITLE7=Having Myself A Time
TTITLE8=Having Myself A Time
TTITLE9=Says My Heart
TTITLE10=Says My Heart
TTITLE11=I Wish I Had You
TTITLE12=I Wish I Had You
TTITLE13=I'm Gonna Lock My Heart
TTITLE14=I'm Gonna Lock My Heart
TTITLE15=Any Old Time
TTITLE16=The Very Thought Of You
TTITLE17=I Can't Get Started
TTITLE18=I Can't Get Started
TTITLE19=I've Got A Date With A Dream
TTITLE20=I've Got A Date With A Dream
TTITLE21=You Can't Be Mine
TTITLE22=You Can't Be Mine
EXTD=YEAR: 1991
EXTT0=
EXTT1=
EXTT2=
EXTT3=
EXTT4=
EXTT5=
EXTT6=
EXTT7=
EXTT8=
EXTT9=
EXTT10=
EXTT11=
EXTT12=
EXTT13=
EXTT14=
EXTT15=
EXTT16=
EXTT17=
EXTT18=
EXTT19=
EXTT20=
EXTT21=
EXTT22=
PLAYORDER=
